<?xml version="1.0" standalone="no"?>
<!DOCTYPE svg PUBLIC "-//W3C//DTD SVG 20010904//EN"
 "http://www.w3.org/TR/2001/REC-SVG-20010904/DTD/svg10.dtd">
<svg version="1.0" xmlns="http://www.w3.org/2000/svg"
 width="237.000000pt" height="115.000000pt" viewBox="0 0 237.000000 115.000000"
 preserveAspectRatio="xMidYMid meet">

<g transform="translate(0.000000,115.000000) scale(0.100000,-0.100000)"
fill="#000000" stroke="none">
<path d="M464 825 c-88 -80 -162 -145 -166 -145 -4 0 -17 14 -29 31 -20 28
-20 32 -6 47 15 14 18 14 37 -3 19 -17 21 -17 40 0 11 10 20 21 20 24 -1 3
-16 23 -35 45 l-34 38 -55 -52 c-31 -29 -56 -57 -56 -62 0 -5 17 -29 37 -54
36 -42 40 -44 91 -44 l54 0 169 156 c93 86 169 158 169 160 0 2 -18 4 -39 4
-36 0 -50 -10 -197 -145z"/>
<path d="M565 795 l-190 -175 -61 0 c-49 0 -64 4 -75 19 -8 10 -32 40 -53 66
l-39 46 44 45 c24 25 57 55 73 67 l29 21 43 -50 c41 -46 44 -48 60 -32 16 16
16 19 -8 50 -14 18 -41 51 -61 73 l-34 40 -112 -104 c-73 -68 -108 -107 -103
-116 4 -7 43 -55 87 -108 l80 -96 70 0 70 0 220 200 c121 110 227 207 235 215
12 12 8 14 -35 13 l-50 0 -190 -174z"/>
<path d="M808 868 c-242 -218 -243 -218 -229 -240 7 -11 114 -138 238 -284
l226 -264 49 0 c26 0 48 3 48 6 0 5 -130 155 -156 179 -6 5 -78 84 -160 174
l-149 164 190 184 189 183 -67 0 -67 0 -112 -102z"/>
<path d="M940 840 c-122 -116 -132 -129 -107 -130 22 0 55 26 162 126 74 70
135 128 135 130 0 2 -12 4 -27 4 -22 0 -58 -29 -163 -130z"/>
<path d="M1238 897 c200 -189 198 -187 228 -187 27 1 19 11 -106 130 -116 111
-140 130 -167 130 -33 0 -33 0 45 -73z"/>
<path d="M1380 842 c74 -70 162 -152 194 -183 l60 -57 -134 -146 c-73 -80
-135 -146 -138 -146 -3 0 -17 10 -31 23 l-26 22 23 -26 c12 -14 22 -31 22 -37
0 -24 -31 -24 -58 -1 l-27 24 23 -26 c12 -14 22 -29 22 -33 0 -5 -31 -43 -70
-86 -38 -43 -70 -80 -70 -84 0 -3 22 -6 48 -6 l49 0 216 253 c251 294 260 305
255 315 -2 4 -80 79 -175 165 l-171 157 -74 0 -73 -1 135 -127z"/>
<path d="M1470 956 c8 -8 114 -105 235 -215 l220 -201 67 0 67 0 91 105 c49
58 90 107 90 109 0 2 -50 50 -111 107 l-112 103 -34 -39 c-20 -22 -47 -55 -61
-73 -23 -31 -24 -34 -9 -50 16 -15 20 -13 60 33 l44 49 39 -31 c21 -17 54 -47
73 -67 l34 -35 -53 -65 -53 -66 -61 0 -61 0 -192 175 -192 175 -47 0 c-42 0
-46 -2 -34 -14z"/>
<path d="M1610 965 c0 -2 21 -24 48 -48 26 -24 101 -94 167 -155 l120 -111 55
-1 c54 0 57 2 93 44 20 25 37 49 37 54 0 6 -25 33 -56 61 l-56 52 -34 -38
c-18 -21 -33 -41 -34 -44 0 -3 9 -14 20 -24 19 -17 21 -17 40 0 19 17 22 17
36 3 15 -14 14 -19 -7 -47 -12 -17 -25 -31 -28 -31 -3 0 -77 65 -165 145 -147
135 -161 145 -197 145 -21 0 -39 -2 -39 -5z"/>
<path d="M1015 834 c-122 -115 -128 -123 -100 -124 25 0 47 17 132 102 l102
101 107 -101 c80 -77 113 -102 133 -102 23 1 14 12 -74 95 -55 53 -116 108
-135 124 l-35 29 -130 -124z"/>
<path d="M1055 800 l-90 -90 37 0 c32 0 43 7 90 60 29 33 57 60 63 60 5 0 35
-27 66 -60 43 -46 63 -60 85 -60 27 0 24 5 -61 90 -49 50 -92 90 -95 90 -3 0
-46 -40 -95 -90z"/>
<path d="M1102 760 c-40 -46 -41 -50 -20 -50 l23 0 -10 -140 -10 -140 -50 -52
-50 -53 48 45 47 44 -2 -64 -3 -65 80 0 c79 0 80 0 77 24 -3 19 0 23 14 17 17
-6 17 -6 1 12 -9 10 -17 31 -17 47 l0 28 28 -24 c22 -20 22 -18 -5 11 -31 35
-31 37 -38 172 -7 133 -7 136 13 140 19 3 17 8 -22 51 -24 26 -47 47 -52 47
-5 0 -28 -23 -52 -50z"/>
<path d="M964 665 c-14 -21 -15 -31 -6 -50 22 -47 102 -27 102 24 0 18 -39 51
-60 51 -11 0 -27 -11 -36 -25z"/>
<path d="M1270 670 c-11 -11 -20 -25 -20 -31 0 -51 80 -71 102 -24 9 19 8 29
-6 50 -20 30 -49 32 -76 5z"/>
<path d="M482 572 l-43 -37 191 -227 191 -228 75 0 c44 0 74 4 72 10 -4 14
-430 520 -437 520 -3 0 -25 -17 -49 -38z"/>
<path d="M1654 468 c-65 -79 -163 -194 -216 -257 -54 -63 -98 -118 -98 -123 0
-4 33 -8 74 -8 l74 0 192 228 191 227 -43 37 c-24 21 -46 38 -49 38 -3 0 -59
-64 -125 -142z"/>
<path d="M282 502 c7 -10 90 -109 183 -220 l170 -202 63 0 c38 0 62 4 60 10
-2 6 -82 104 -178 219 l-175 210 -68 0 c-64 1 -67 0 -55 -17z"/>
<path d="M1775 363 c-71 -86 -154 -185 -183 -219 l-54 -64 69 0 69 0 55 68
c31 37 105 125 165 196 60 70 117 139 127 152 l19 24 -69 0 -68 0 -130 -157z"/>
<path d="M1083 208 c2 -9 26 -13 72 -13 46 0 70 4 73 13 3 9 -16 12 -73 12
-57 0 -76 -3 -72 -12z"/>
</g>
</svg>
